<mxfile host="app.diagrams.net" agent="Mozilla/5.0 (Windows NT 10.0; Win64; x64) AppleWebKit/537.36 (KHTML, like Gecko) Chrome/135.0.0.0 Safari/537.36" version="26.2.8">
  <diagram name="第 1 页" id="5GmKmM-aRcAU6IhC1Y0I">
    <mxGraphModel dx="571" dy="314" grid="1" gridSize="10" guides="1" tooltips="1" connect="1" arrows="1" fold="1" page="1" pageScale="1" pageWidth="1654" pageHeight="1169" math="0" shadow="0">
      <root>
        <mxCell id="0" />
        <mxCell id="1" parent="0" />
        <mxCell id="-z_SpKmIsZgEhdyyi4K2-20" value="&lt;span style=&quot;&quot; lang=&quot;EN-US&quot;&gt;&lt;font face=&quot;Maple Mono CN&quot; style=&quot;font-size: 10px;&quot;&gt;&lt;b style=&quot;&quot;&gt;amenity&lt;/b&gt;&lt;/font&gt;&lt;/span&gt;" style="rounded=0;whiteSpace=wrap;html=1;gradientDirection=north;align=center;" vertex="1" parent="1">
          <mxGeometry x="200" y="280" width="440" height="20" as="geometry" />
        </mxCell>
        <mxCell id="-z_SpKmIsZgEhdyyi4K2-22" value="&lt;font style=&quot;font-size: 10px;&quot; face=&quot;Comic Sans MS&quot;&gt;&lt;b&gt;public_transport&lt;/b&gt;&lt;/font&gt;" style="rounded=0;whiteSpace=wrap;html=1;align=center;" vertex="1" parent="1">
          <mxGeometry x="200" y="440" width="440" height="20" as="geometry" />
        </mxCell>
        <mxCell id="-z_SpKmIsZgEhdyyi4K2-26" value="&lt;font style=&quot;font-size: 10px;&quot; face=&quot;Comic Sans MS&quot;&gt;&lt;b&gt;shop&lt;/b&gt;&lt;/font&gt;" style="rounded=0;whiteSpace=wrap;html=1;align=center;" vertex="1" parent="1">
          <mxGeometry x="200" y="340" width="440" height="20" as="geometry" />
        </mxCell>
        <mxCell id="-z_SpKmIsZgEhdyyi4K2-27" value="&lt;font face=&quot;Maple Mono CN&quot;&gt;&lt;font style=&quot;font-size: 8px;&quot;&gt;格式：&lt;span style=&quot;background-color: rgb(230, 208, 222);&quot;&gt;poi[&#39;tags&#39;][&#39;amenity&#39;]&lt;/span&gt;:&lt;/font&gt;&lt;span style=&quot;font-size: 8px; background-color: rgb(213, 232, 212);&quot;&gt;poi[&#39;tags&#39;][&#39;name&#39;]&lt;/span&gt;&lt;/font&gt;&lt;div&gt;&lt;font face=&quot;Maple Mono CN&quot;&gt;&lt;font style=&quot;font-size: 8px;&quot;&gt;示例&lt;/font&gt;&lt;font style=&quot;font-size: 8px;&quot;&gt;：&lt;/font&gt;&lt;/font&gt;&lt;span style=&quot;font-size: 8px;&quot;&gt;&lt;font style=&quot;&quot; face=&quot;Maple Mono CN&quot;&gt;&lt;span style=&quot;background-color: rgb(230, 208, 222);&quot;&gt;fast_food&lt;/span&gt;:&lt;span style=&quot;background-color: rgb(213, 232, 212);&quot;&gt;麦当劳&lt;/span&gt;&lt;/font&gt;&lt;/span&gt;&lt;/div&gt;" style="rounded=0;whiteSpace=wrap;html=1;align=left;" vertex="1" parent="1">
          <mxGeometry x="200" y="300" width="440" height="40" as="geometry" />
        </mxCell>
        <mxCell id="-z_SpKmIsZgEhdyyi4K2-29" value="&lt;font face=&quot;Maple Mono CN&quot;&gt;&lt;font style=&quot;font-size: 8px;&quot;&gt;格式：&lt;span&gt;&lt;span&gt;a&lt;/span&gt;&lt;span&gt;&amp;nbsp;&lt;/span&gt;&lt;/span&gt;&lt;/font&gt;&lt;span style=&quot;font-size: 8px; background-color: rgb(213, 232, 212);&quot;&gt;poi[&#39;tags&#39;][&#39;name&#39;]&lt;/span&gt;&lt;span style=&quot;font-size: 8px;&quot;&gt; shop&lt;/span&gt;&lt;/font&gt;&lt;div&gt;&lt;font style=&quot;font-family: &amp;quot;Maple Mono CN&amp;quot;; font-size: 8px;&quot;&gt;示例&lt;/font&gt;&lt;font style=&quot;font-family: &amp;quot;Maple Mono CN&amp;quot;; font-size: 8px;&quot;&gt;：a&amp;nbsp;&lt;/font&gt;&lt;span style=&quot;font-family: &amp;quot;Maple Mono CN&amp;quot;; font-size: 8px; color: light-dark(rgb(0, 0, 0), rgb(255, 255, 255)); background-color: rgb(213, 232, 212);&quot;&gt;桥头火锅底料(宽窄巷子店)&lt;/span&gt;&lt;span style=&quot;font-family: &amp;quot;Maple Mono CN&amp;quot;; font-size: 8px; color: light-dark(rgb(0, 0, 0), rgb(255, 255, 255));&quot;&gt; shop&lt;/span&gt;&lt;/div&gt;" style="rounded=0;whiteSpace=wrap;html=1;align=left;" vertex="1" parent="1">
          <mxGeometry x="340" y="360" width="300" height="40" as="geometry" />
        </mxCell>
        <mxCell id="-z_SpKmIsZgEhdyyi4K2-30" value="&lt;span style=&quot;font-family: &amp;quot;Maple Mono CN&amp;quot;; font-size: 8px; text-align: left; background-color: rgb(212, 225, 245);&quot;&gt;poi[&#39;tags&#39;][&#39;shop&#39;]&lt;/span&gt;&lt;span style=&quot;font-family: &amp;quot;Maple Mono CN&amp;quot;; font-size: 8px; text-align: left;&quot;&gt; = &#39;yes&#39;&lt;/span&gt;" style="rounded=0;whiteSpace=wrap;html=1;" vertex="1" parent="1">
          <mxGeometry x="200" y="360" width="140" height="40" as="geometry" />
        </mxCell>
        <mxCell id="-z_SpKmIsZgEhdyyi4K2-31" value="&lt;span style=&quot;font-family: &amp;quot;Maple Mono CN&amp;quot;; font-size: 8px; text-align: left; background-color: rgb(212, 225, 245);&quot;&gt;poi[&#39;tags&#39;][&#39;shop&#39;]&lt;/span&gt;&lt;span style=&quot;font-family: &amp;quot;Maple Mono CN&amp;quot;; font-size: 8px; text-align: left;&quot;&gt; = OTHER&lt;/span&gt;" style="rounded=0;whiteSpace=wrap;html=1;" vertex="1" parent="1">
          <mxGeometry x="200" y="400" width="140" height="40" as="geometry" />
        </mxCell>
        <mxCell id="-z_SpKmIsZgEhdyyi4K2-32" value="&lt;font face=&quot;Maple Mono CN&quot;&gt;&lt;font style=&quot;font-size: 8px;&quot;&gt;格式：&lt;span style=&quot;background-color: rgb(212, 225, 245);&quot;&gt;poi[&#39;tags&#39;][&#39;shop&#39;]&lt;/span&gt;:&lt;/font&gt;&lt;span style=&quot;font-size: 8px; background-color: rgb(213, 232, 212);&quot;&gt;poi[&#39;tags&#39;][&#39;name&#39;]&lt;/span&gt;&lt;/font&gt;&lt;div&gt;&lt;font style=&quot;font-family: &amp;quot;Maple Mono CN&amp;quot;; font-size: 8px;&quot;&gt;示例&lt;/font&gt;&lt;font style=&quot;font-family: &amp;quot;Maple Mono CN&amp;quot;; font-size: 8px;&quot;&gt;：&lt;/font&gt;&lt;font style=&quot;&quot; face=&quot;Maple Mono CN&quot;&gt;&lt;span style=&quot;font-size: 8px; background-color: rgb(212, 225, 245);&quot;&gt;supermarket&lt;/span&gt;&lt;/font&gt;&lt;span style=&quot;font-family: &amp;quot;Maple Mono CN&amp;quot;; font-size: 8px; background-color: transparent; color: light-dark(rgb(0, 0, 0), rgb(255, 255, 255));&quot;&gt;:&lt;/span&gt;&lt;span style=&quot;font-family: &amp;quot;Maple Mono CN&amp;quot;; font-size: 8px; color: light-dark(rgb(0, 0, 0), rgb(255, 255, 255)); background-color: rgb(213, 232, 212);&quot;&gt;永辉超市&lt;/span&gt;&lt;/div&gt;" style="rounded=0;whiteSpace=wrap;html=1;align=left;" vertex="1" parent="1">
          <mxGeometry x="340" y="400" width="300" height="40" as="geometry" />
        </mxCell>
        <mxCell id="-z_SpKmIsZgEhdyyi4K2-33" value="&lt;span style=&quot;font-family: &amp;quot;Maple Mono CN&amp;quot;; font-size: 8px; text-align: left;&quot;&gt;&#39;bus&#39; in &lt;/span&gt;&lt;span style=&quot;font-family: &amp;quot;Maple Mono CN&amp;quot;; font-size: 8px; text-align: left; background-color: rgb(255, 242, 204);&quot;&gt;poi[&#39;tags&#39;]&lt;/span&gt;" style="rounded=0;whiteSpace=wrap;html=1;" vertex="1" parent="1">
          <mxGeometry x="200" y="460" width="140" height="40" as="geometry" />
        </mxCell>
        <mxCell id="-z_SpKmIsZgEhdyyi4K2-34" value="&lt;span style=&quot;font-family: &amp;quot;Maple Mono CN&amp;quot;; font-size: 8px; text-align: left;&quot;&gt;&#39;subway&#39; in&amp;nbsp;&lt;/span&gt;&lt;span style=&quot;font-family: &amp;quot;Maple Mono CN&amp;quot;; font-size: 8px; text-align: left; background-color: rgb(255, 242, 204);&quot;&gt;poi[&#39;tags&#39;]&lt;/span&gt;" style="rounded=0;whiteSpace=wrap;html=1;" vertex="1" parent="1">
          <mxGeometry x="200" y="500" width="140" height="40" as="geometry" />
        </mxCell>
        <mxCell id="-z_SpKmIsZgEhdyyi4K2-36" value="&lt;font style=&quot;font-size: 10px;&quot; face=&quot;Comic Sans MS&quot;&gt;&lt;b&gt;else&lt;/b&gt;&lt;/font&gt;" style="rounded=0;whiteSpace=wrap;html=1;align=center;" vertex="1" parent="1">
          <mxGeometry x="200" y="540" width="440" height="20" as="geometry" />
        </mxCell>
        <mxCell id="-z_SpKmIsZgEhdyyi4K2-38" value="&lt;font face=&quot;Maple Mono CN&quot;&gt;&lt;span style=&quot;font-size: 8px;&quot;&gt;a point&lt;/span&gt;&lt;/font&gt;" style="rounded=0;whiteSpace=wrap;html=1;align=center;" vertex="1" parent="1">
          <mxGeometry x="200" y="560" width="440" height="20" as="geometry" />
        </mxCell>
        <mxCell id="-z_SpKmIsZgEhdyyi4K2-39" value="&lt;font face=&quot;Maple Mono CN&quot;&gt;&lt;font style=&quot;font-size: 8px;&quot;&gt;格式：&lt;/font&gt;&lt;/font&gt;&lt;span style=&quot;font-family: &amp;quot;Maple Mono CN&amp;quot;; font-size: 8px;&quot;&gt;a subway station&lt;/span&gt;&lt;font face=&quot;Maple Mono CN&quot;&gt;&lt;font style=&quot;font-size: 8px;&quot;&gt;:&lt;/font&gt;&lt;span style=&quot;font-size: 8px; background-color: rgb(213, 232, 212);&quot;&gt;poi[&#39;tags&#39;][&#39;name&#39;]&lt;/span&gt;&lt;/font&gt;&lt;div&gt;&lt;font style=&quot;font-family: &amp;quot;Maple Mono CN&amp;quot;; font-size: 8px;&quot;&gt;示例&lt;/font&gt;&lt;font style=&quot;font-family: &amp;quot;Maple Mono CN&amp;quot;; font-size: 8px;&quot;&gt;：&lt;/font&gt;&lt;font style=&quot;&quot; face=&quot;Maple Mono CN&quot;&gt;&lt;span style=&quot;font-size: 8px;&quot;&gt;a subway station&lt;/span&gt;&lt;/font&gt;&lt;span style=&quot;font-family: &amp;quot;Maple Mono CN&amp;quot;; font-size: 8px; background-color: transparent; color: light-dark(rgb(0, 0, 0), rgb(255, 255, 255));&quot;&gt;:&lt;/span&gt;&lt;span style=&quot;font-family: &amp;quot;Maple Mono CN&amp;quot;; font-size: 8px; color: light-dark(rgb(0, 0, 0), rgb(255, 255, 255)); background-color: rgb(213, 232, 212);&quot;&gt;二仙桥&lt;/span&gt;&lt;/div&gt;" style="rounded=0;whiteSpace=wrap;html=1;align=left;" vertex="1" parent="1">
          <mxGeometry x="340" y="500" width="300" height="40" as="geometry" />
        </mxCell>
        <mxCell id="-z_SpKmIsZgEhdyyi4K2-40" value="&lt;font face=&quot;Maple Mono CN&quot;&gt;&lt;font style=&quot;font-size: 8px;&quot;&gt;格式：&lt;/font&gt;&lt;/font&gt;&lt;span style=&quot;font-family: &amp;quot;Maple Mono CN&amp;quot;; font-size: 8px;&quot;&gt;a bus station&lt;/span&gt;&lt;font face=&quot;Maple Mono CN&quot;&gt;&lt;font style=&quot;font-size: 8px;&quot;&gt;:&lt;/font&gt;&lt;span style=&quot;font-size: 8px; background-color: rgb(213, 232, 212);&quot;&gt;poi[&#39;tags&#39;][&#39;name&#39;]&lt;/span&gt;&lt;/font&gt;&lt;div&gt;&lt;font style=&quot;font-family: &amp;quot;Maple Mono CN&amp;quot;; font-size: 8px;&quot;&gt;示例&lt;/font&gt;&lt;font style=&quot;font-family: &amp;quot;Maple Mono CN&amp;quot;; font-size: 8px;&quot;&gt;：&lt;/font&gt;&lt;font style=&quot;&quot; face=&quot;Maple Mono CN&quot;&gt;&lt;span style=&quot;font-size: 8px;&quot;&gt;a bus station&lt;/span&gt;&lt;/font&gt;&lt;span style=&quot;font-family: &amp;quot;Maple Mono CN&amp;quot;; font-size: 8px; background-color: transparent; color: light-dark(rgb(0, 0, 0), rgb(255, 255, 255));&quot;&gt;:&lt;/span&gt;&lt;span style=&quot;font-family: &amp;quot;Maple Mono CN&amp;quot;; font-size: 8px; color: light-dark(rgb(0, 0, 0), rgb(255, 255, 255)); background-color: rgb(213, 232, 212);&quot;&gt;成华大道三段&lt;/span&gt;&lt;/div&gt;" style="rounded=0;whiteSpace=wrap;html=1;align=left;" vertex="1" parent="1">
          <mxGeometry x="340" y="460" width="300" height="40" as="geometry" />
        </mxCell>
      </root>
    </mxGraphModel>
  </diagram>
</mxfile>
